# xmcd
#
# Track frame offsets: 
#        150
#        9219
#        20240
#        32274
#        42819
#        53334
#        64269
#        75904
#        85022
#        96444
#        105991
#        121613
#
# Disc length: 1737 seconds
#
# Revision: 0
# Processed by: cddbd v1.5.2PL0 Copyright (c) Steve Scherf et al.
# Submitted via: ExactAudioCopy v1.0b3
#
DISCID=7606c70c
DTITLE=The Buckaroos - America's Most Wanted Band
DYEAR=1967
DGENRE=Country
TTITLE0=The Happy-Go-Lucky Guitar
TTITLE1=It Takes A Lot Of You For Me
TTITLE2=Neosho Waltz
TTITLE3=You'll Never Miss The Water (Till The Well Runs Dry)
TTITLE4=The Way That I Love You
TTITLE5=Round Hole Guitar
TTITLE6=Happy Son Of A Gun
TTITLE7=Steel Guitar Polka
TTITLE8=Something To Remember You By
TTITLE9=Seven Come Eleven
TTITLE10=Out Of My Mind
TTITLE11=Tumwater Breakdown
EXTD=
EXTT0=
EXTT1=
EXTT2=
EXTT3=
EXTT4=
EXTT5=
EXTT6=
EXTT7=
EXTT8=
EXTT9=
EXTT10=
EXTT11=
PLAYORDER=
